<svg viewBox="0 0 207.96 204.83" xmlns="http://www.w3.org/2000/svg"><path d="m63.68 204.73c-15.46 0-27.1-.5-34.62-1.48a22.88 22.88 0 0 1 -16.79-10.25c-6.15-9.39-5.27-22.73-3.85-31.12h-.12a8.22 8.22 0 0 1 -6.23-5c-.57-1.33-1.63-3.81-1.91-25.17-.29-22.27.54-23.43 2.06-25.56 2.68-3.75 6.78-3.89 14.08-4.15 4-.13 9.48-.2 16.24-.2 4.77 0 9.5 0 13.3.08 0-3.22.17-5.55.35-7.29-3.76-.3-7.16-.61-10-.91a14.86 14.86 0 0 1 -8.85 5.32 13.93 13.93 0 0 1 -2.94.32 16 16 0 0 1 -11.4-5.19c-5.42-5.57-8.3-14.95-7.93-25.73.69-20.44 9.55-34.31 28.74-45 18.1-10.03 50.19-15.08 63.07-15.08a24.4 24.4 0 0 1 4.73.37l.47.11a37.35 37.35 0 0 1 16-6.93 105.91 105.91 0 0 1 19.09-1.77c10.59 0 18.69 1.7 24.08 5.06 11.36 7.08 14.17 24.76 14.9 49.13.38 12.32.37 22.13.3 28.44a27.66 27.66 0 0 1 20.34 15.89c6 13.19 5.35 41.57 4.92 51.28 2.6 3.66 6 9.39 6.14 14.42.18 6.14-2 13.7-13 16.28a18.14 18.14 0 0 1 -11.63 4.17 19.49 19.49 0 0 1 -2.84-.21 16.49 16.49 0 0 1 -5.18.85 15.76 15.76 0 0 1 -3.16-.32c-.2.28-.4.55-.62.82a11.52 11.52 0 0 1 -5.51 3.79 8.56 8.56 0 0 1 -1.42 1.87 9.94 9.94 0 0 1 -7.34 2.63c-5.08 0-7.25-1.58-8.43-2.76-.22-.22-.42-.45-.61-.67-4.17-.05-7.07-3-8.58-6.1a8 8 0 0 1 -4.05-2.35 12.06 12.06 0 0 1 -5.06.08c-1.12 13.13-1.95 15.94-5.13 18.33-2.06 1.55-2.92 2.19-23.4 3.12-12.23.56-26.17.88-38.21.88z" fill="#fff" stroke="#706f6f" stroke-miterlimit="10" stroke-width=".2"/><path d="m104.51 93.48s-49.11-.88-50 .22-.66 16.3-.66 16.3-44-.74-45.13.81-.66 42.93.88 43.15 8.2 2.55 8.2 2.55-10.49 35.84 12.3 38.81c23.69 3.09 88.66.33 90.42-1s3.36-33.69 3.36-33.69-20.88-5.49-19.37-67.15z" fill="#4f4249"/><path d="m31.14 84.92s.53 5-5.5 6.28-13.1-7.07-12.58-22.53 5.77-27.77 24.63-38.25 55.8-15.19 62.31-13.88a13.35 13.35 0 0 1 3.15 2.36s4.58-6.95 16.37-9.17 29.48-2.73 37.48 2.27 10.48 20.83 11.14 42.58.13 35.76.13 35.76 14.93-2.1 21.22 11.65 4.06 50.44 4.06 50.44 6.16 7.72 6.29 12.18-1.44 7.6-8.91 8.64c0 0-3.67 5.24-11.4 3a8.17 8.17 0 0 1 -10.08-1.31s-11.27.39-10.74-10l-1.31.79.26 9s8 2.88 8.25 4.19-1.57 3.14-2.75 3.14-4.19-1.83-4.19-1.83.39 5.11-.13 5.63-4.06.26-4.46-.13-.39-5.37-.39-5.37-5 2.36-5.76 2.36-2.88-3.15-1.44-4.46a61.55 61.55 0 0 1 6.94-4.32l-.13-9a7 7 0 0 1 -5.24-3.4 10.62 10.62 0 0 1 -5.24 2.88l-.12 3.58s4.71.4 5.63 2.1-1.18 2.62-1.18 2.62l-2.88-.39s.79 2.62.52 3.27-3.14 1.31-3.66 1.31-2.23-3.8-2.23-3.8-2.26.51-3.28.79c-1.44.39-2.62 1-4.06.65s-2.75-3.66-.13-5a21.26 21.26 0 0 1 6.68-1.58l-.13-3.66s-5.89-2.23-7.46-5.11a4.67 4.67 0 0 1 -5.11 3.8c-4.46-.27-13.76-7.6-19.13-22.93s-4.45-50-4.45-50-63.26-3.19-70.99-5.15z" fill="#4f4249"/><path d="m106.33 89.63s10.61-4.85 7.34-21.87c0 0 7.59-2.62 4.58-15.46s-7.73-23.45-10.87-28.82c0 0 1.44-6.42 17-8.51s31.17-1.84 34.45 10.61 3.17 64.31 3.17 64.31-5-.26-5.37.79 0 4.72.92 5 19.12-1.57 23.84 4.45 6.81 19.91 6.94 33.4-.79 20.18-.26 20.7 8.12 10.61 7.73 12-1.71 3.41-5.11 2.88c0 0-5.24-11.26-5.9-11.39s-2.75 2-2.35 2.75 5.37 10.21 5.37 10.21a6.36 6.36 0 0 1 -6.55 1.84s-1.31-13-2.1-13.49-3-.27-3 .78 1.57 12.45 1.57 12.45-3.67 1.57-5.76-.66c0 0 .13-12.84-.13-13.23s-3.67-1.05-3.8.13-.27 12.32-.27 12.32-4.58-1.31-5.1-3.41 1.57-15.19 1-15.59a2.42 2.42 0 0 0 -2.88.79c-.65 1.05-2.62 8.91-3.93 9.17s-5.11-.13-9.17-6.81-5.76-2.23-5-.53a37.3 37.3 0 0 0 2.48 4.19s-1.83 4.85-7.07.53-7.86-7.86-8.64-8-3.41.52-3.15 1.57 1.44 3.54 1.18 3.93-5-.39-11-8.91-8.91-31.83-8.39-53.18c0 0 8.13-.52 11.66.26s3.67 5.24 3.67 12.31 2.49 23.58 9.82 30.66 13.63 7.07 14.54 6.55.92-2.36.92-2.36a22.87 22.87 0 0 1 -14.28-10.09c-5.5-8.64-7.46-25.41-7.59-31.44s-3.41-10-8.13-10.08-12.44.26-12.44.26z" fill="#84767e"/><path d="m158.86 25.58c-3.28-12.45-18.86-12.71-34.45-10.58s-17 8.51-17 8.51c1 1.63 2.05 3.74 3.2 6.25 2.17-2.44 7.77-7.15 18.86-7.64 13-.57 23.93 1 29.73 4.83-.13-.52-.2-.95-.34-1.37z" fill="#c8b7b4"/><path d="m148.77 142s0 1.83-.92 2.36-7.2.52-14.54-6.55-9.82-23.58-9.82-30.66-.13-11.52-3.67-12.31-11.66-.26-11.66-.26c-.52 21.35 2.36 44.67 8.39 53.18s10.74 9.3 11 8.91-.92-2.88-1.18-3.93 2.36-1.7 3.15-1.57 3.4 3.66 8.64 8 7.07-.53 7.07-.53a37.3 37.3 0 0 1 -2.48-4.19c-.79-1.7.91-6.15 5 .53s7.86 7.07 9.17 6.81 3.28-8.12 3.93-9.17a2.42 2.42 0 0 1 2.88-.79c.07.05.09.29.09.68.89-2.33 1.49-4.39 1.22-5.26-.61-1.92-16.27-5.25-16.27-5.25z" fill="#f9f2ed"/><path d="m26 85.31c0 .58-6.15-2-6.94-13.62s2.39-18.69 5.53-23.06 6.16-6.68 7.47-6.81 8.38 6.68 9.17 21.88a17.86 17.86 0 0 0 -10.23 7.2c-3.92 5.89-5.23 10.87-5 14.41z" fill="#84767e"/><path d="m44.37 63.17s1.18-14-8.64-23.32c0 0 2.88-6.28 28.81-12.18s33.8-4.45 33.8-4.45 11.66 12.36 13.66 26.07c1.12 7.87 1.31 14.54.13 14.93s-67.76-1.05-67.76-1.05z" fill="#f6c687"/><path d="m31.4 80.33s2.49-11.4 10-11.4c0 0 .39 7.47-3.15 12.19a25.41 25.41 0 0 1 -6.85-.79z" fill="#6e6069"/><path d="m41.23 81.64s3.93-3.93 4.19-13.75c0 0 60.26-.4 62.22-.13s3.14 4.19 2.1 9.3-4.2 8.77-7.08 9.17-61.43-4.59-61.43-4.59z" fill="#f0a26c"/><path d="m139.93 103.52c0-.54.49-1.18 2-1.18s1.72 2.36 1.72 2.36-2 18.73 4.55 25.54 13.13 7.76 13.13 7.76-5.41-6.68-5.54-10.61 1.11-3.41 2.34-3.41 1.72 1.31 1.84 2.88.86 7.34 5.29 9.43 5.29 1.05 5.29 1.05-3.57-4.19-3.69-8.12 1.11-3.67 2-3.67a1.74 1.74 0 0 1 2 1.84c.13 1.57 4.56 14.39 5.66 9.69.37-1.57.49-20.7-.12-23.58s-.49-3.67.61-4.32 2.34-1.31 3.32 1.83 1.23 24.63 0 27.38a5.26 5.26 0 0 1 -7.87 2s-3.69 3.67-8.36 0c0 0-2.09 3.41-9.84.14s-15.68-8.85-14.33-37.01z" fill="#4f4249"/><path d="m128.73 50.33c1.26-.36 6.94 3.15 8.51 4.59s2 3 1.58 3.54a1.64 1.64 0 0 1 -1.18.52s-5.64-3.54-8.12-4.32-2.62-3.8-.79-4.33z" fill="#4f4249"/><path d="m134.23 43.26c5.65.12 4.32 11.53-.78 10.74s-5.51-10.87.78-10.74z" fill="#4f4249"/><path d="m140.91 17.72c-.65.65-2.49 3.53-2.23 4.19s.79 1.83 1.31 1.83 3.41-2.35 3.67-3.93-2.01-2.81-2.75-2.09zm12.09 5.37c.26-.79-2.79-3.6-3.66-3-1.18.78-4.85 7.2-5 7.72s1.18 1.44 1.83 1.58 6.53-5.52 6.83-6.3zm3.11 7.91c.39-.79-1.34-4.51-2-4.33-.92.27-4.19 4.33-5 5.38s-.13 3.27 1.05 3.27 5.55-3.59 5.95-4.32zm.89 2.7a23.47 23.47 0 0 0 -3.53 2.75c-.4.65-.13 2.36.65 2.49s3.15-1.44 3.8-2.23-.5-3.01-.92-3.01z" fill="#4f4249"/><path d="m118.77 90.42c4.72.13 8 4.06 8.13 10.08s2.09 22.8 7.59 31.44a23.09 23.09 0 0 0 3.57 4.33c-3.44-12.51-3.49-58.17-4-70-.37-9.36-9.8-10-15.18-9.64.55 9.07-5.25 11.08-5.25 11.08 3.27 17-7.34 21.87-7.34 21.87v1.05s7.77-.34 12.48-.21z" fill="#c8b7b4"/><path d="m131.48 51.21s-.61-5.15 1.31-5.5.61 6.55.61 6.55z" fill="#f9f2ed"/><path d="m98.34 23.22s-7.86-1.44-33.8 4.45-28.81 12.18-28.81 12.18a26 26 0 0 1 5.27 7.15c1.7-2.2 6.7-5.43 21.22-7.69a370.44 370.44 0 0 1 44.45-4.31 83.61 83.61 0 0 0 -8.33-11.78z" fill="#f9dab4"/><path d="m32.06 41.82c-1.31.13-4.32 2.49-7.47 6.81s-6.29 11.37-5.5 23.06 7 14.2 6.94 13.62c-5.15-12.58-3.65-19.79.75-29 3.24-6.79 7.77-8.83 10-9.43-2.04-3.5-4.08-5.12-4.72-5.06z" fill="#a8a3a6"/><path d="m38.21 81.12a14.86 14.86 0 0 0 2.37-5.12c-3.07-.23-5.6-.41-7.4-.53a24.38 24.38 0 0 0 -1.78 4.91 25.41 25.41 0 0 0 6.81.74z" fill="#5b4e58"/><path d="m109.74 77.06c.06-.31.11-.62.16-.92-3 3-10.23 4.81-32.26 2.81-12.43-1.13-24.64-2.08-33.55-2.75a14.46 14.46 0 0 1 -2.86 5.44s58.55 5 61.43 4.59 6.03-4.07 7.08-9.17z" fill="#ce7e48"/><path d="m188.07 154.21c-.53-.52.39-7.2.26-20.7s-2.23-27.37-6.94-33.4c-3.57-4.55-14.83-4.62-20.52-4.49 4.74.59 16.4 2.68 19.93 9.2 4.46 8.26 4.29 48.72 4.29 48.72s7 12.09 9.53 14.69a4.2 4.2 0 0 0 1.18-2c.39-1.41-7.21-11.5-7.73-12.02z" fill="#c8b7b4"/><path d="m73.8 98.78a1.61 1.61 0 0 1 -.48.93c-1.16 1.41-2.32 2.82-3.6 4.12a3.86 3.86 0 0 0 -.93 1.26 3.56 3.56 0 0 0 -.14 1.3l.08 3.81a1.8 1.8 0 0 1 -.22 1.11.93.93 0 0 1 -1.25.19 1.67 1.67 0 0 1 -.4-1.33v-3.87a2.75 2.75 0 0 0 -.77-2.15l-3.42-4.42a1.71 1.71 0 0 1 -.38-.7.92.92 0 0 1 .25-.74.88.88 0 0 1 .73-.27 1.72 1.72 0 0 1 1 .79l3.29 4.31a.39.39 0 0 0 .21.17c.12 0 .23-.09.31-.18l3.72-4.41c.33-.38.73-.8 1.23-.77a.83.83 0 0 1 .49.21.85.85 0 0 1 .28.64z" fill="#f6c687"/><path d="m75.23 103.55a14.9 14.9 0 0 1 .24-3.4 2.27 2.27 0 0 1 2.13-2 41.62 41.62 0 0 1 4.32-.31.91.91 0 0 1 .69.19.9.9 0 0 1 .12 1.3.87.87 0 0 1 -.64.29c-.94.11-1.89.13-2.84.2-.46 0-.92.09-1.39.13a.63.63 0 0 0 -.61.57 16 16 0 0 0 -.18 2.4c0 .33.2.35.44.35l3.23.1a3.38 3.38 0 0 1 .71.1.81.81 0 0 1 .66.84.85.85 0 0 1 -.66.84 2.48 2.48 0 0 1 -.77.06l-3.08-.1c-.33 0-.45.07-.42.43a31.13 31.13 0 0 0 .53 3.72c.15.64.2.69.86.59s1.51-.3 2.26-.45a1.66 1.66 0 0 1 .62-.06.85.85 0 0 1 .79.73.77.77 0 0 1 -.48.91 10.31 10.31 0 0 1 -4 .7 1.89 1.89 0 0 1 -1.71-1.48 20 20 0 0 1 -.67-3.83c-.06-1.05-.1-2.08-.15-2.82z" fill="#f6c687"/><path d="m89 111.65a4.07 4.07 0 0 1 -.78 0 5 5 0 0 1 -3.1-1.65 1 1 0 0 1 0-1.23 1.06 1.06 0 0 1 1.18 0c.37.2.67.51 1 .73a2.62 2.62 0 0 0 2.56.11 1.29 1.29 0 0 0 .63-.61c.23-.58-.23-1.21-.71-1.61-.83-.62-1.7-1.2-2.59-1.74a5.64 5.64 0 0 1 -2.09-2.24 3.83 3.83 0 0 1 .6-3.91 4.37 4.37 0 0 1 3.81-1.5 5 5 0 0 1 3.49 2 1.93 1.93 0 0 1 .47 1.14.9.9 0 0 1 -.68.93c-.6.09-1-.58-1.38-1.07a3 3 0 0 0 -3-1.16 2.2 2.2 0 0 0 -1.53 2.69 3.3 3.3 0 0 0 1.36 1.48 20.21 20.21 0 0 1 3.06 2.1 3.31 3.31 0 0 1 1.08 3.35 2.88 2.88 0 0 1 -.92 1.23 4 4 0 0 1 -2.46.96z" fill="#f6c687"/><path d="m114.7 183.61a4.52 4.52 0 0 1 -5.25 3.65 4.89 4.89 0 0 1 -4-5.47 4.47 4.47 0 0 1 5.26-3.64 4.88 4.88 0 0 1 3.99 5.46zm-7.7-9.15a13.21 13.21 0 0 0 .23-1.36c1.07-5.5 2-9.57 2.57-11.57.18-.61.45-1 1.13-.95 1.59 0 3.14.45 4.72.6a.85.85 0 0 1 .75.79 3.33 3.33 0 0 1 0 1.09c-.61 4.26-1 8.93-1.45 12.29-.15 1-.2 1-1.27.91-2-.24-3.93-.47-5.89-.67-.79-.08-.99-.41-.79-1.13z" fill="#f6c687"/><path d="m48.35 179.85s-1.81-2.85-2.15-2.79a3.49 3.49 0 0 0 -.74.89 27 27 0 0 0 -3.17-1.73 1 1 0 0 0 -1.46.45 17 17 0 0 1 -1 1.4c-.86 1-1.74.93-2.36-.27a2.82 2.82 0 0 1 -.28-.73 10.93 10.93 0 0 1 1.42-8c.41-.7.8-.65 1.19.07.07.12.12.25.19.37-.34.15-.6.3-.64.42-.13.37 2 2.64 2 2.64a1.34 1.34 0 0 0 1.33.55c1.09-.07 3.28 0 3.28 0h1.49 1.48c1.76 0 2.1-.36 2-2.13 0-.16 0-.32 0-.47a30.86 30.86 0 0 0 -1.86-7 12.84 12.84 0 0 0 -5.07-6.52c-5-3.12-11-1.61-14.7 2.78a20.41 20.41 0 0 0 -4.66 15.82 15.6 15.6 0 0 0 5.2 10.71 9.63 9.63 0 0 0 8.05 2.38 14.63 14.63 0 0 0 8.62-5 7.39 7.39 0 0 0 1.93-3 1 1 0 0 0 -.09-.84zm25.83 0c-1.6-7.42-3.44-14.8-4.84-22.27a1.24 1.24 0 0 0 -.32-.73l-1.81-2.46-.83 1.59s.35.41.61.66c-2.89.06-5.78.1-8.66.1-.79 0-1.07.29-1.26 1q-2.76 11.1-5.57 22.19c-.43 1.68-.84 3.36-1.26 5a2 2 0 0 0 -.29-.15 18.87 18.87 0 0 0 -2.17.74l1.92 2.52a.88.88 0 0 0 .71.33 82.26 82.26 0 0 0 8.74.31c.92 0 1.06-.17 1.13-1.1.09-1.27.23-2.54.3-3.81 0-.56.26-.78.81-.79.83 0 1.66-.08 2.49-.13.52 0 .78.17.77.71s.08 1.31.12 1.9l-1.77.54 1.83 2.5c.08.2.26.27.54.26 2-.1 4-.13 5.93-.29 1.25-.1 2.5-.08 3.75-.13.55 0 .76-.2.65-.83-.44-2.51-.97-5.14-1.52-7.71zm-10.46-6.67c-.36 0-.72 0-1.09 0h-.39c-1.47 0-1.49.22-1.06-1.35.29-1.08.63-2.14.91-3.23.15-.61.52-.74 1.09-.72s.65.36.71.82c.15 1.23.3 2.47.51 3.7.1.6-.08.78-.68.73zm40.47-14.75-1.89-2.56s-.29 1.29-.29 1.43a1.75 1.75 0 0 0 .39.46h-.12c-2.23-.28-4.48-.07-6.71-.18-.86 0-1.21.31-1.38 1.11-.59 2.77-1.24 5.54-1.72 8.34-.08.5-.2 1-.3 1.49h-.17c-.32-1.15-.64-2.29-1-3.43-.62-2.26-1.15-4.55-1.88-6.77a2.23 2.23 0 0 0 -.47-.83l-1.74-2.49-.61 1 .68.91c-2.93.05-5.86.1-8.78.18a1.65 1.65 0 0 0 -1.81 1.91c.12 2.8.29 5.61.42 8.42.24 5 .45 10.09.68 15.13 0 .79.08 1.58.14 2.38h-1.44l1.81 2.41a1.34 1.34 0 0 0 1.15.58 53.87 53.87 0 0 0 5.54.16c1.66 0 2.17-.51 2.18-2.2 0-.26 0-.52 0-.78 0-1.89 0-3.77 0-5.66a2.5 2.5 0 0 0 .17.76c.54 1.77 1.07 3.54 1.62 5.3l-.89-.08 1.84 2.5c.43.55 1 .7 2.12.73s2 0 3 0c1.35 0 2.7.11 4.05 0 1-.1 1.33-.39 1.45-1.38l.09-.62q2-13.29 4-26.58a2.63 2.63 0 0 0 -.13-1.69z" fill="#e27f2f"/><path d="m44.12 170.58c-1.1 0-2.2-.05-3.29 0a1.42 1.42 0 0 1 -1.64-1.19 15 15 0 0 0 -1.2-2.8c-.39-.71-.78-.76-1.19-.06a10.91 10.91 0 0 0 -1.43 8 2.82 2.82 0 0 0 .28.73c.62 1.2 1.5 1.31 2.37.27.36-.44.67-.92 1-1.4a1 1 0 0 1 1.46-.45 50.41 50.41 0 0 1 5.74 3.33.92.92 0 0 1 .4 1.15 7.29 7.29 0 0 1 -1.93 3 14.61 14.61 0 0 1 -8.61 5 9.62 9.62 0 0 1 -8-2.38 15.54 15.54 0 0 1 -5.21-10.7 20.45 20.45 0 0 1 4.67-15.83c3.72-4.38 9.75-5.9 14.7-2.78a12.93 12.93 0 0 1 5 6.46 31 31 0 0 1 1.76 7.07 3.78 3.78 0 0 1 .06.47c.13 1.77-.21 2.14-2 2.13h-1.49-1.45z" fill="#fad79e"/><path d="m63 183.87c.07-.76-.15-1.77-.13-2.78 0-.55-.25-.75-.77-.72-.83 0-1.66.11-2.5.13-.55 0-.78.23-.81.79-.07 1.27-.2 2.54-.3 3.82-.06.92-.21 1.07-1.12 1.09a82.26 82.26 0 0 1 -8.74-.31c-.72-.06-.93-.39-.73-1.21.59-2.42 1.2-4.85 1.81-7.27 1.86-7.4 3.74-14.79 5.58-22.19.18-.73.46-1 1.25-1 3.28 0 6.56 0 9.84-.11.75 0 1 .2 1.16.95 1.39 7.47 3.24 14.85 4.83 22.28.56 2.57 1.09 5.14 1.54 7.73.11.62-.1.8-.65.82-1.25 0-2.5 0-3.75.14-2 .15-3.95.18-5.92.28-.4 0-.59-.12-.59-.52zm-2.17-13.21h1.09c.59 0 .77-.17.67-.77-.21-1.23-.36-2.47-.51-3.71-.05-.45-.13-.8-.71-.82s-.94.12-1.09.73c-.27 1.08-.62 2.15-.91 3.22-.43 1.58-.41 1.36 1.07 1.36z" fill="#fad79e"/><path d="m90.31 165.91c.1-.49.21-1 .3-1.49.47-2.8 1.12-5.56 1.72-8.34.17-.79.52-1.14 1.37-1.1 2.24.1 4.48-.11 6.71.17h.31c1.74.32 2 .66 1.73 2.42q-2 13.29-4 26.58c0 .21-.06.41-.08.62-.13 1-.44 1.28-1.45 1.38-1.36.14-2.71 0-4.06 0-1 0-2 0-3 0-1.67 0-2.16-.34-2.69-1.95-.71-2.15-1.33-4.33-2-6.5a2 2 0 0 1 -.17-.7v5.66.78c0 1.69-.52 2.2-2.19 2.2a54 54 0 0 1 -5.54-.15c-.84-.09-1.27-.37-1.35-1.22-.14-1.37-.22-2.75-.28-4.13-.24-5-.45-10.09-.68-15.13-.13-2.81-.3-5.61-.42-8.42a1.63 1.63 0 0 1 1.8-1.94c3.1-.09 6.2-.14 9.3-.2a1.6 1.6 0 0 1 1.62 1.31c.73 2.23 1.26 4.51 1.88 6.77l1 3.43z" fill="#fad79e"/><path d="m15.89 126.57c0 .05 1.45 1.93 1.45 1.93l1.2-1.64z" fill="#ce7e48"/><path d="m95.68 120.72-1.47-1.94-.47.41.07 1.28c-2.17 0-4.33 0-6.5 0-1.16 0-1.18 0-1.41 1.18a43.41 43.41 0 0 1 -1.65 6.91 7.17 7.17 0 0 1 -1.53 2.78c-.82.8-1.59.71-2.15-.29a9.18 9.18 0 0 1 -1-3 55.74 55.74 0 0 1 -.84-8.15 2.14 2.14 0 0 0 -.11-.88l-1.47-2s-.22 1.1-.33 1.69a43.87 43.87 0 0 0 -5.5.05c-1.07.07-1.47.43-1.61 1.51s-.12 2-.19 3a51.93 51.93 0 0 0 .81 13.69 19.19 19.19 0 0 0 3.6 8.81 6.66 6.66 0 0 0 10.72-.09 2.58 2.58 0 0 1 .84-.9v1 1.9h-1.2l1.52 2a.81.81 0 0 0 .72.32c1.69 0 3.38.1 5.08.12s2.34-.58 2.49-2.3c.09-.93.14-1.87.2-2.8q.38-5.41.74-10.83.24-3.66.45-7.33c.11-1.82.43-3.62.39-5.45a1.1 1.1 0 0 0 -.2-.69zm-48.77.15c-4.37 3.58-6.08 8.44-6.32 13.63a18.7 18.7 0 0 0 2.52 9.5c4.14 6.86 12.4 8.45 18.33 3.53a18.35 18.35 0 0 0 3.24-24.13c-4.12-5.88-11.68-7.53-17.77-2.53zm8.22 15.13a2.44 2.44 0 0 1 -3.53-.44 3.9 3.9 0 0 1 -.75-2.59 4.24 4.24 0 0 1 1.06-2.6 2.56 2.56 0 0 1 4.27.4 4.29 4.29 0 0 1 -1.05 5.23zm-14.82-17.1-1.51-2-.33 1.48h-.61c-3.7.11-7.41.19-11.11.29-2.81.08-5.63.16-8.44.27-1 0-1.53.43-1.51 1.3.06 2.48.16 5 .32 7.42.07 1 .55 1.37 1.63 1.34s2-.07 3-.14c.57 0 .81.17.82.75 0 2.71.08 5.42.09 8.12 0 3.24 0 6.47.09 9.71l-1.2.14 1.45 1.94c.2.29.55.4 1.12.39a64.33 64.33 0 0 0 6.92-.57 1 1 0 0 0 1-1.08q.14-4.9.3-9.83c.1-3 .21-6.09.3-9.13 0-.74.3-1 1.08-1.06 1.58-.05 3.17-.18 4.75-.3s2-.55 2-1.8q.09-3.12.1-6.25a1.73 1.73 0 0 0 -.25-1z" fill="#e27f2f"/><path d="m25.25 116.69 11.11-.29c1.38 0 2.71-.23 2.7 1.5 0 2.08 0 4.17-.09 6.25 0 1.25-.53 1.69-2 1.8s-3.16.25-4.75.29c-.78 0-1.06.33-1.08 1.07-.08 3-.2 6.09-.3 9.13l-.3 9.83a1 1 0 0 1 -1 1.08 64.31 64.31 0 0 1 -6.93.57c-.95 0-1.29-.3-1.33-1.23-.14-3.65-.1-7.29-.12-10.94 0-2.71-.08-5.41-.1-8.12 0-.58-.24-.79-.81-.75-1 .07-2 .11-3.05.14s-1.56-.29-1.63-1.34c-.16-2.47-.25-4.94-.31-7.42 0-.87.48-1.26 1.51-1.3q4.23-.17 8.48-.27z" fill="#fad79e"/><path d="m39.1 132.51c.24-5.19 1.94-10 6.32-13.63 6.11-5 13.64-3.35 17.77 2.5a18.35 18.35 0 0 1 -3.25 24.13c-5.94 4.92-14.19 3.33-18.33-3.51a18.59 18.59 0 0 1 -2.51-9.49zm10.25-1.51a4 4 0 0 0 .75 2.59 2.44 2.44 0 0 0 3.53.44 4.29 4.29 0 0 0 1-5.23 2.56 2.56 0 0 0 -4.27-.4 4.36 4.36 0 0 0 -1.01 2.6z" fill="#fad79e"/><path d="m84 142.75a2.4 2.4 0 0 0 -.84.9 6.67 6.67 0 0 1 -10.73.08 19.1 19.1 0 0 1 -3.6-8.8 52.79 52.79 0 0 1 -.83-13.69c.07-1 .07-2 .19-3s.54-1.44 1.61-1.51a40.22 40.22 0 0 1 6.4 0c1 .09 1.06.1 1.08 1.17a54.25 54.25 0 0 0 .83 8.15 9.17 9.17 0 0 0 1 3c.56 1 1.32 1.09 2.15.29a7.34 7.34 0 0 0 1.53-2.79 43 43 0 0 0 1.64-6.9c.23-1.17.25-1.18 1.42-1.18h7.58c.72 0 .93.24 1 .94 0 1.83-.28 3.63-.38 5.45-.14 2.44-.29 4.89-.45 7.33q-.36 5.42-.74 10.83c-.07.93-.12 1.87-.2 2.8-.16 1.72-.79 2.32-2.5 2.3s-3.44-.12-5.16-.12c-.6 0-.83-.31-.92-.83a26.32 26.32 0 0 1 -.13-3.44c.05-.28.05-.56.05-.98z" fill="#fad79e"/><g fill="#f6c687"><path d="m34.45 185.34a8.81 8.81 0 0 1 -5.79-2.28c-2.81-2.39-4.4-5.68-4.85-10.05a19.35 19.35 0 0 1 4.43-15.07 11 11 0 0 1 8.31-4.08 9.5 9.5 0 0 1 5.1 1.5 11.77 11.77 0 0 1 4.56 6 30.12 30.12 0 0 1 1.79 6.77v.39a2.41 2.41 0 0 1 0 1 4.74 4.74 0 0 1 -.84.06h-1.56-1.48-.21-1.78c-.46 0-.91 0-1.36 0h-.11c-.26 0-.37 0-.52-.48a15.17 15.17 0 0 0 -1.28-3 1.72 1.72 0 0 0 -1.49-1.08 1.68 1.68 0 0 0 -1.44 1 12 12 0 0 0 -1.54 8.74 3.79 3.79 0 0 0 .37 1 2.36 2.36 0 0 0 2.09 1.52 2.51 2.51 0 0 0 1.94-1.07 14.91 14.91 0 0 0 .91-1.27l.14-.21a.45.45 0 0 1 .12-.14h.1a35.46 35.46 0 0 1 4.33 2.46l1.27.79a.64.64 0 0 0 0 .07 6.06 6.06 0 0 1 -1.59 2.45l-.11.12a13.5 13.5 0 0 1 -8 4.69 9.1 9.1 0 0 1 -1.51.17z"/><path d="m64 183.87a8.83 8.83 0 0 0 -.06-1.49 11 11 0 0 1 -.07-1.28 1.72 1.72 0 0 0 -.46-1.27 1.65 1.65 0 0 0 -1.21-.46h-.2-.42c-.68 0-1.36.09-2 .1a1.69 1.69 0 0 0 -1.79 1.74c0 .76-.11 1.53-.17 2.3 0 .5-.09 1-.12 1.49v.17h-.14-1.48c-2.24 0-4.59-.11-7-.31.59-2.42 1.2-4.84 1.81-7.26l1.49-5.89q2.06-8.14 4.09-16.3a2.21 2.21 0 0 1 .08-.26h.65c2.94 0 6 0 9.37-.11h.11a1.06 1.06 0 0 1 0 .14c.91 4.85 2 9.73 3.09 14.45.6 2.62 1.19 5.23 1.76 7.85.43 2 1 4.68 1.47 7.35h-1c-.79 0-1.61 0-2.44.1-1.27.1-2.57.15-3.83.2l-1.6.06zm-2.72-19.52a1.85 1.85 0 0 0 -2 1.48c-.16.62-.34 1.24-.52 1.85-.13.45-.26.91-.38 1.36v.13c-.25.91-.4 1.46 0 2a1.5 1.5 0 0 0 1.28.51h1.17.17.5.34.16a1.52 1.52 0 0 0 1.22-.5 1.78 1.78 0 0 0 .3-1.44c-.2-1.17-.35-2.39-.49-3.56s-.71-1.77-1.69-1.8z"/><path d="m95.45 185.25h-1.2-1.26-.43c-.9 0-1.8 0-2.71 0-1.29 0-1.37-.09-1.76-1.26-.48-1.46-.92-2.94-1.36-4.41l-.63-2.07v-.15a1.56 1.56 0 0 1 -.1-.36 1 1 0 0 0 -1-.93 1 1 0 0 0 -1 1v5.57a3.83 3.83 0 0 0 0 .47v.3c0 1.17-.11 1.2-1.16 1.2h-1.79a31.7 31.7 0 0 1 -3.64-.15 1.05 1.05 0 0 1 -.42-.09 1.16 1.16 0 0 1 0-.23c-.14-1.37-.21-2.77-.27-4.07-.13-2.61-.24-5.23-.36-7.84q-.15-3.65-.32-7.3c-.06-1.24-.13-2.49-.19-3.73-.08-1.56-.17-3.12-.23-4.68a1 1 0 0 1 .14-.71 1 1 0 0 1 .69-.19c2.34-.07 4.67-.11 7-.16h2.29c.24 0 .44 0 .64.62.5 1.52.91 3.1 1.31 4.63.18.7.37 1.4.56 2.1l1 3.43a1 1 0 0 0 1 .73h.2a1 1 0 0 0 1-.8l.09-.44q.12-.54.21-1.08c.35-2.07.81-4.17 1.26-6.19l.45-2.11a2.11 2.11 0 0 1 .1-.31h.18 1.7 2.08a23.28 23.28 0 0 1 2.93.14h.25a2.62 2.62 0 0 1 1 .28 3.83 3.83 0 0 1 -.08 1l-4 26.58-.09.65a1.24 1.24 0 0 1 -.09.43 2.12 2.12 0 0 1 -.46.08 13.74 13.74 0 0 1 -1.53.05z"/><path d="m22.55 146.92h-.19c0-.06 0-.14 0-.26-.1-2.7-.11-5.46-.11-8.13 0-.93 0-1.85 0-2.77 0-1.49 0-3-.05-4.45 0-1.23 0-2.45-.05-3.68a1.6 1.6 0 0 0 -1.69-1.74h-.19c-1 .06-2 .1-3 .13h-.1a1.18 1.18 0 0 1 -.44 0 1.51 1.51 0 0 1 -.06-.35c-.14-2.23-.25-4.65-.32-7.38a.86.86 0 0 1 0-.19 1.72 1.72 0 0 1 .54-.09q4.2-.17 8.42-.27l5.33-.14c1.93 0 3.86-.09 5.78-.15h.9c.58 0 .69.08.7.09a.84.84 0 0 1 .07.43c0 2 0 4-.09 6.22 0 .64 0 .75-1.06.83h-.65c-1.33.1-2.71.21-4.06.24a1.92 1.92 0 0 0 -2.05 2c0 1.9-.12 3.79-.18 5.68l-.12 3.45-.3 9.83v.1h-.1a64.22 64.22 0 0 1 -6.82.56z"/><path d="m52.27 147.37a11.58 11.58 0 0 1 -9.8-5.9 17.53 17.53 0 0 1 -2.37-9c.25-5.55 2.2-9.77 5.95-12.83a11.33 11.33 0 0 1 7.2-2.75 11.2 11.2 0 0 1 9.12 5 17.44 17.44 0 0 1 -3.07 22.78 11 11 0 0 1 -7.03 2.7zm.16-20.92a3.66 3.66 0 0 0 -2.77 1.31 5.37 5.37 0 0 0 -1.31 3.24 5 5 0 0 0 1 3.25 3.47 3.47 0 0 0 2.74 1.38 3.59 3.59 0 0 0 2.18-.76 5.32 5.32 0 0 0 1.31-6.53 3.61 3.61 0 0 0 -3.15-1.89z"/><path d="m90.11 147.12q-1.24 0-2.49-.06c-.85 0-1.69-.05-2.54-.06a10.74 10.74 0 0 1 -.1-2c0-.44 0-.88 0-1.32 0-.17 0-.33 0-.54v-.39a1 1 0 0 0 -.49-.86 1.06 1.06 0 0 0 -.51-.14 1 1 0 0 0 -.49.13 2.85 2.85 0 0 0 -1 1c0 .06-.07.11-.1.16a5.76 5.76 0 0 1 -4.58 2.36 5.87 5.87 0 0 1 -4.58-2.3 18.45 18.45 0 0 1 -3.4-8.36 51.9 51.9 0 0 1 -.83-13.43l.06-1.08a17.71 17.71 0 0 1 .13-1.82c.07-.61.09-.61.68-.64 1.23-.08 2.31-.12 3.3-.12s2 0 2.94.12h.16a1 1 0 0 0 0 .18 55.17 55.17 0 0 0 .85 8.3 10 10 0 0 0 1.1 3.27 2.27 2.27 0 0 0 2 1.35 2.48 2.48 0 0 0 1.75-.83 7.81 7.81 0 0 0 1.74-3v-.09a34 34 0 0 0 1.45-5.81l.24-1.26c0-.11 0-.25.08-.37h4.58 3.31a24.12 24.12 0 0 1 -.2 3.25c-.07.69-.14 1.39-.18 2.08q-.21 3.66-.45 7.32c-.17 2.64-.36 5.28-.54 7.92l-.25 3.71q-.06 1-.15 2c-.11 1.26-.37 1.39-1.42 1.39z"/></g></svg>